<svg width="56" height="56" viewBox="0 0 56 56" fill="none" xmlns="http://www.w3.org/2000/svg">
<rect width="56" height="56" rx="16" fill="#CCFBF1"/>
<path d="M32.5 23.5C31.6562 23.5 31 22.8438 31 22C31 21.2031 31.6562 20.5 32.5 20.5H40C40.7969 20.5 41.5 21.2031 41.5 22V29.5C41.5 30.3438 40.7969 31 40 31C39.1562 31 38.5 30.3438 38.5 29.5V25.6562L30.5312 33.5781C29.9688 34.1875 28.9844 34.1875 28.4219 33.5781L23.5 28.6562L17.0312 35.0781C16.4688 35.6875 15.4844 35.6875 14.9219 35.0781C14.3125 34.5156 14.3125 33.5312 14.9219 32.9688L22.4219 25.4688C22.9844 24.8594 23.9688 24.8594 24.5312 25.4688L29.5 30.3906L36.3438 23.5H32.5Z" fill="#199A8E"/>
</svg>
