<svg width="21" height="20" viewBox="0 0 21 20" fill="none" xmlns="http://www.w3.org/2000/svg">
<path d="M10.4688 20C6.875 20 3.59375 18.125 1.79688 15C0 11.9141 0 8.125 1.79688 5C3.59375 1.91406 6.875 0 10.4688 0C14.0234 0 17.3047 1.91406 19.1016 5C20.8984 8.125 20.8984 11.9141 19.1016 15C17.3047 18.125 14.0234 20 10.4688 20ZM14.8828 8.16406H14.8438C15.2344 7.8125 15.2344 7.22656 14.8438 6.83594C14.4922 6.48438 13.9062 6.48438 13.5547 6.83594L9.21875 11.2109L7.38281 9.375C6.99219 8.98438 6.40625 8.98438 6.05469 9.375C5.66406 9.72656 5.66406 10.3125 6.05469 10.6641L8.55469 13.1641C8.90625 13.5547 9.49219 13.5547 9.88281 13.1641L14.8828 8.16406Z" fill="#F36523"/>
</svg>
