<svg width="56" height="56" viewBox="0 0 56 56" fill="none" xmlns="http://www.w3.org/2000/svg">
<rect width="56" height="56" rx="16" fill="#F3E8FF"/>
<path d="M20.5 18.625C20.5 18.0156 20.9688 17.5 21.5781 17.5C21.8125 17.5 22.0938 17.6406 22.2812 17.7812L35.125 29.2188C35.3594 29.4062 35.5 29.6875 35.5 29.9688C35.5 30.5781 35.0312 31 34.4219 31H28.8906L31.5625 36.3438C31.9375 37.0938 31.6562 37.9844 30.9062 38.3594C30.1562 38.7344 29.2656 38.4531 28.8906 37.7031L26.1719 32.2188L22.2812 36.6719C22.0938 36.9062 21.8125 37 21.5312 37C20.9219 37 20.5 36.5781 20.5 35.9688V18.625Z" fill="#7231C5"/>
</svg>
