<svg width="10" height="11" viewBox="0 0 10 11" fill="none" xmlns="http://www.w3.org/2000/svg">
<path d="M9.0625 5.21484C9.0625 3.76953 8.28125 2.44141 7.03125 1.69922C5.76172 0.976562 4.21875 0.976562 2.96875 1.69922C1.69922 2.44141 0.9375 3.76953 0.9375 5.21484C0.9375 6.67969 1.69922 8.00781 2.96875 8.75C4.21875 9.47266 5.76172 9.47266 7.03125 8.75C8.28125 8.00781 9.0625 6.67969 9.0625 5.21484ZM0 5.21484C0 3.4375 0.9375 1.79688 2.5 0.898438C4.04297 0 5.9375 0 7.5 0.898438C9.04297 1.79688 10 3.4375 10 5.21484C10 7.01172 9.04297 8.65234 7.5 9.55078C5.9375 10.4492 4.04297 10.4492 2.5 9.55078C0.9375 8.65234 0 7.01172 0 5.21484ZM4.53125 2.55859C4.53125 2.30469 4.72656 2.08984 5 2.08984C5.25391 2.08984 5.46875 2.30469 5.46875 2.55859V4.98047L7.12891 6.07422C7.34375 6.23047 7.40234 6.52344 7.26562 6.73828C7.10938 6.95312 6.81641 7.01172 6.60156 6.85547L4.72656 5.60547C4.60938 5.52734 4.53125 5.37109 4.53125 5.21484V2.55859Z" fill="#F36523"/>
</svg>
