<svg width="56" height="56" viewBox="0 0 56 56" fill="none" xmlns="http://www.w3.org/2000/svg">
<rect width="56" height="56" rx="16" fill="#FFEDD5"/>
<path d="M31.375 16.0938C32.1719 16.3281 32.6406 17.125 32.4062 17.9219L26.4062 38.9219C26.1719 39.7188 25.375 40.1875 24.5781 39.9531C23.7812 39.7188 23.3125 38.9219 23.5469 38.125L29.5469 17.125C29.7812 16.3281 30.5781 15.8594 31.375 16.0938ZM35.1719 21.7188C35.7344 21.1094 36.7188 21.1094 37.2812 21.7188L42.5312 26.9688C43.1406 27.5312 43.1406 28.5156 42.5312 29.0781L37.2812 34.3281C36.7188 34.9375 35.7344 34.9375 35.1719 34.3281C34.5625 33.7656 34.5625 32.7812 35.1719 32.2188L39.3438 28L35.1719 23.8281C34.5625 23.2656 34.5625 22.2812 35.1719 21.7188ZM20.7812 21.7188C21.3906 22.2812 21.3906 23.2656 20.7812 23.8281L16.6094 28L20.7812 32.2188C21.3906 32.7812 21.3906 33.7656 20.7812 34.3281C20.2188 34.9375 19.2344 34.9375 18.6719 34.3281L13.4219 29.0781C12.8125 28.5156 12.8125 27.5312 13.4219 26.9688L18.6719 21.7188C19.2344 21.1094 20.2188 21.1094 20.7812 21.7188Z" fill="#F36523"/>
</svg>
