<svg width="56" height="56" viewBox="0 0 56 56" fill="none" xmlns="http://www.w3.org/2000/svg">
<rect width="56" height="56" rx="16" fill="#F36523"/>
<path d="M18.25 19H37.75C38.9688 19 40 20.0312 40 21.25C40 22 39.625 22.6562 39.0625 23.0781L28.8906 30.7188C28.3281 31.1406 27.625 31.1406 27.0625 30.7188L16.8906 23.0781C16.3281 22.6562 16 22 16 21.25C16 20.0312 16.9844 19 18.25 19ZM16 24.25L26.1719 31.9375C27.25 32.7344 28.7031 32.7344 29.7812 31.9375L40 24.25V34C40 35.6875 38.6406 37 37 37H19C17.3125 37 16 35.6875 16 34V24.25Z" fill="white"/>
</svg>
