<svg width="14" height="11" viewBox="0 0 14 11" fill="none" xmlns="http://www.w3.org/2000/svg">
<path d="M1.75 1.3125C1.50391 1.3125 1.3125 1.53125 1.3125 1.75V2.37891L6.01562 6.23438C6.58984 6.69922 7.38281 6.69922 7.95703 6.23438L12.6875 2.37891V1.75C12.6875 1.53125 12.4688 1.3125 12.25 1.3125H1.75ZM1.3125 4.07422V8.75C1.3125 8.99609 1.50391 9.1875 1.75 9.1875H12.25C12.4688 9.1875 12.6875 8.99609 12.6875 8.75V4.07422L8.80469 7.24609C7.73828 8.12109 6.23438 8.12109 5.19531 7.24609L1.3125 4.07422ZM0 1.75C0 0.792969 0.765625 0 1.75 0H12.25C13.207 0 14 0.792969 14 1.75V8.75C14 9.73438 13.207 10.5 12.25 10.5H1.75C0.765625 10.5 0 9.73438 0 8.75V1.75Z" fill="white"/>
</svg>
