<svg width="12" height="9" viewBox="0 0 12 9" fill="none" xmlns="http://www.w3.org/2000/svg">
<path d="M5.64453 0.9375C4.35547 0.9375 3.32031 1.52344 2.51953 2.26562C1.75781 2.96875 1.25 3.78906 0.976562 4.375C1.25 4.96094 1.75781 5.80078 2.51953 6.50391C3.32031 7.24609 4.35547 7.8125 5.64453 7.8125C6.91406 7.8125 7.94922 7.24609 8.75 6.50391C9.51172 5.80078 10.0391 4.96094 10.293 4.375C10.0391 3.78906 9.51172 2.96875 8.76953 2.26562C7.94922 1.52344 6.91406 0.9375 5.64453 0.9375ZM1.875 1.58203C2.79297 0.722656 4.0625 0 5.64453 0C7.20703 0 8.47656 0.722656 9.39453 1.58203C10.3125 2.44141 10.918 3.4375 11.2109 4.14062C11.2695 4.29688 11.2695 4.47266 11.2109 4.62891C10.918 5.3125 10.3125 6.32812 9.39453 7.1875C8.47656 8.04688 7.20703 8.75 5.64453 8.75C4.0625 8.75 2.79297 8.04688 1.875 7.1875C0.957031 6.32812 0.351562 5.3125 0.0585938 4.62891C0 4.47266 0 4.29688 0.0585938 4.14062C0.351562 3.4375 0.957031 2.42188 1.875 1.58203ZM5.64453 5.9375C6.50391 5.9375 7.20703 5.25391 7.20703 4.375C7.20703 3.51562 6.50391 2.8125 5.64453 2.8125C5.625 2.8125 5.60547 2.8125 5.60547 2.8125C5.625 2.92969 5.64453 3.02734 5.64453 3.125C5.64453 3.82812 5.07812 4.375 4.39453 4.375C4.27734 4.375 4.17969 4.375 4.08203 4.33594C4.08203 4.35547 4.08203 4.375 4.08203 4.375C4.08203 5.25391 4.76562 5.9375 5.64453 5.9375ZM5.64453 1.875C6.52344 1.875 7.34375 2.36328 7.79297 3.125C8.24219 3.90625 8.24219 4.86328 7.79297 5.625C7.34375 6.40625 6.52344 6.875 5.64453 6.875C4.74609 6.875 3.92578 6.40625 3.47656 5.625C3.02734 4.86328 3.02734 3.90625 3.47656 3.125C3.92578 2.36328 4.74609 1.875 5.64453 1.875Z" fill="#F36523"/>
</svg>
