<svg width="48" height="48" viewBox="0 0 48 48" fill="none" xmlns="http://www.w3.org/2000/svg">
<rect width="48" height="48" rx="12" fill="#F8F8F8"/>
<path d="M32.0938 24.375L28.5938 27.875C26.8438 29.6562 23.9688 29.6562 22.2188 27.875C20.6562 26.3125 20.4375 23.875 21.7188 22.0625L21.75 22.0312C22.0938 21.5625 22.7188 21.4688 23.1562 21.7812C23.5938 22.0938 23.7188 22.7188 23.375 23.1875L23.3438 23.2188C22.625 24.2188 22.75 25.5938 23.625 26.4688C24.5938 27.4688 26.1875 27.4688 27.1875 26.4688L30.6875 22.9688C31.6875 21.9688 31.6875 20.375 30.6875 19.4062C29.8125 18.5312 28.4375 18.4062 27.4375 19.125L27.4062 19.1562C26.9375 19.5 26.3125 19.375 26 18.9375C25.6875 18.5 25.7812 17.875 26.2188 17.5312L26.2812 17.5C28.0938 16.2188 30.5312 16.4375 32.0938 18C33.875 19.75 33.875 22.625 32.0938 24.375ZM15.875 23.6562L19.375 20.125C21.1562 18.375 24 18.375 25.7812 20.125C27.3438 21.6875 27.5312 24.1562 26.25 25.9688L26.2188 26C25.9062 26.4688 25.25 26.5625 24.8125 26.25C24.375 25.9375 24.25 25.3125 24.5938 24.8438L24.625 24.8125C25.3438 23.7812 25.2188 22.4375 24.3438 21.5625C23.375 20.5625 21.7812 20.5625 20.7812 21.5625L17.2812 25.0625C16.3125 26.0312 16.3125 27.625 17.2812 28.625C18.1562 29.5 19.5312 29.625 20.5312 28.9062L20.5625 28.875C21.0312 28.5312 21.6562 28.6562 21.9688 29.0938C22.2812 29.5312 22.1875 30.1562 21.75 30.5L21.6875 30.5312C19.9062 31.8125 17.4375 31.5938 15.875 30.0312C14.0938 28.2812 14.0938 25.4062 15.875 23.6562Z" fill="black"/>
</svg>
