<svg width="56" height="56" viewBox="0 0 56 56" fill="none" xmlns="http://www.w3.org/2000/svg">
<rect width="56" height="56" rx="16" fill="#F36523"/>
<path d="M29.0781 39.4375C28.5156 40.1406 27.4375 40.1406 26.875 39.4375C24.4844 36.3906 19 29.125 19 25C19 20.0312 23.0312 16 28 16C32.9688 16 37 20.0312 37 25C37 29.125 31.5156 36.3906 29.0781 39.4375ZM28 22C26.9219 22 25.9375 22.6094 25.375 23.5C24.8594 24.4375 24.8594 25.6094 25.375 26.5C25.9375 27.4375 26.9219 28 28 28C29.0312 28 30.0156 27.4375 30.5781 26.5C31.0938 25.6094 31.0938 24.4375 30.5781 23.5C30.0156 22.6094 29.0312 22 28 22Z" fill="white"/>
</svg>
