<svg width="92" height="75" viewBox="0 0 92 75" fill="none" xmlns="http://www.w3.org/2000/svg">
<g opacity="0.4">
<path d="M0 35.5V5C0 2.23858 2.23858 0 5 0H37C39.7614 0 42 2.23858 42 5V40C42 42.7614 39.7614 45 37 45H29.5C26.7386 45 24.5 47.2386 24.5 50V75C5.3 55.8 0.166667 40.6667 0 35.5Z" fill="#64748B"/>
<path d="M49.5 35.5V5C49.5 2.23858 51.7386 0 54.5 0H86.5C89.2614 0 91.5 2.23858 91.5 5V40C91.5 42.7614 89.2614 45 86.5 45H79C76.2386 45 74 47.2386 74 50V75C54.8 55.8 49.6667 40.6667 49.5 35.5Z" fill="#64748B"/>
</g>
</svg>
