<svg width="14" height="15" viewBox="0 0 14 15" fill="none" xmlns="http://www.w3.org/2000/svg">
<path d="M13.9727 10.5719L13.3164 13.3336C13.2344 13.7438 12.9062 14.0172 12.4961 14.0172C5.60547 13.9899 0 8.38441 0 1.49378C0 1.08363 0.246094 0.755502 0.65625 0.67347L3.41797 0.0172202C3.80078 -0.064811 4.21094 0.153939 4.375 0.509408L5.66016 3.48988C5.79688 3.84535 5.71484 4.2555 5.41406 4.47425L3.9375 5.67738C4.86719 7.5641 6.39844 9.09535 8.3125 10.025L9.51562 8.54847C9.73438 8.27503 10.1445 8.16566 10.5 8.30238L13.4805 9.58753C13.8359 9.77894 14.0547 10.1891 13.9727 10.5719Z" fill="white"/>
</svg>
