<svg width="56" height="56" viewBox="0 0 56 56" fill="none" xmlns="http://www.w3.org/2000/svg">
<rect width="56" height="56" rx="16" fill="#F36523"/>
<path d="M23.6875 17.1719L25.5625 21.6719C25.8906 22.4219 25.7031 23.3125 25.0469 23.8281L22.75 25.75C24.2969 29.0312 26.9688 31.7031 30.25 33.25L32.1719 30.9531C32.6875 30.2969 33.5781 30.1094 34.3281 30.4375L38.8281 32.3125C39.7188 32.6406 40.1406 33.625 39.9062 34.5156L38.7812 38.6406C38.5469 39.4375 37.8438 40 37 40C25.375 40 16 30.625 16 19C16 18.1562 16.5625 17.4531 17.3594 17.2188L21.4844 16.0938C22.375 15.8594 23.3594 16.2812 23.6875 17.1719Z" fill="white"/>
</svg>
