<svg width="48" height="48" viewBox="0 0 48 48" fill="none" xmlns="http://www.w3.org/2000/svg">
<rect width="48" height="48" rx="12" fill="#F8F8F8"/>
<path d="M25.5938 17.0938C25.9375 16.9375 26.375 17 26.6562 17.2812L31.6562 21.7812C31.875 21.9688 32 22.2188 32 22.5C32 22.8125 31.875 23.0625 31.6562 23.25L26.6562 27.75C26.375 28.0312 25.9375 28.0938 25.5938 27.9375C25.2188 27.7812 25 27.4062 25 27V25H22C20.3438 25 19 26.3438 19 28C19 28.9688 19.375 29.5 19.6875 29.7812C19.8438 29.9375 20 30.1562 20 30.4062C20 30.75 19.7188 31 19.375 31C19.2812 31 19.1875 31 19.125 30.9688C18.5312 30.625 16 29.0625 16 25.5C16 22.4688 18.4375 20 21.5 20H25V18C25 17.625 25.2188 17.25 25.5938 17.0938Z" fill="black"/>
</svg>
