<svg width="32" height="32" viewBox="0 0 32 32" fill="none" xmlns="http://www.w3.org/2000/svg">
<rect width="32" height="32" rx="5" fill="#F36523"/>
<path d="M23.1367 12.5938C23.1367 12.7695 23.1367 12.9102 23.1367 13.0859C23.1367 17.9727 19.4453 23.5625 12.6602 23.5625C10.5508 23.5625 8.61719 22.9648 7 21.9102C7.28125 21.9453 7.5625 21.9805 7.87891 21.9805C9.60156 21.9805 11.1836 21.3828 12.4492 20.3984C10.832 20.3633 9.46094 19.3086 9.00391 17.832C9.25 17.8672 9.46094 17.9023 9.70703 17.9023C10.0234 17.9023 10.375 17.832 10.6562 17.7617C8.96875 17.4102 7.70312 15.9336 7.70312 14.1406V14.1055C8.19531 14.3867 8.79297 14.5273 9.39062 14.5625C8.37109 13.8945 7.73828 12.7695 7.73828 11.5039C7.73828 10.8008 7.91406 10.168 8.23047 9.64062C10.0586 11.8555 12.8008 13.332 15.8594 13.5078C15.7891 13.2266 15.7539 12.9453 15.7539 12.6641C15.7539 10.625 17.4062 8.97266 19.4453 8.97266C20.5 8.97266 21.4492 9.39453 22.1523 10.1328C22.9609 9.95703 23.7695 9.64062 24.4727 9.21875C24.1914 10.0977 23.6289 10.8008 22.8555 11.2578C23.5938 11.1875 24.332 10.9766 24.9648 10.6953C24.4727 11.4336 23.8398 12.0664 23.1367 12.5938Z" fill="white"/>
</svg>
