<svg width="24" height="21" viewBox="0 0 24 21" fill="none" xmlns="http://www.w3.org/2000/svg">
<path d="M0 3C0 1.35938 1.3125 0 3 0H21C22.6406 0 24 1.35938 24 3V18C24 19.6875 22.6406 21 21 21H3C1.3125 21 0 19.6875 0 18V3ZM15.1406 8.01562C14.9531 7.6875 14.5781 7.5 14.25 7.5C13.875 7.5 13.5 7.6875 13.3125 8.01562L9.23438 14.0156L7.96875 12.4219C7.78125 12.1875 7.45312 12 7.125 12C6.75 12 6.42188 12.1875 6.23438 12.4219L3.23438 16.1719C2.95312 16.5469 2.90625 17.0156 3.09375 17.3906C3.28125 17.7656 3.65625 18 4.125 18H8.625H10.125H19.875C20.25 18 20.6719 17.8125 20.8594 17.4375C21.0469 17.0625 21 16.5938 20.7656 16.2656L15.1406 8.01562ZM5.25 7.5C6.04688 7.5 6.75 7.07812 7.17188 6.375C7.59375 5.71875 7.59375 4.82812 7.17188 4.125C6.75 3.46875 6.04688 3 5.25 3C4.40625 3 3.70312 3.46875 3.28125 4.125C2.85938 4.82812 2.85938 5.71875 3.28125 6.375C3.70312 7.07812 4.40625 7.5 5.25 7.5Z" fill="white"/>
</svg>
