<svg width="32" height="32" viewBox="0 0 32 32" fill="none" xmlns="http://www.w3.org/2000/svg">
<rect width="32" height="32" rx="5" fill="#F36523"/>
<path d="M24.8008 11.6445C25.2227 13.1211 25.2227 16.2852 25.2227 16.2852C25.2227 16.2852 25.2227 19.4141 24.8008 20.9258C24.5898 21.7695 23.9219 22.4023 23.1133 22.6133C21.6016 23 15.625 23 15.625 23C15.625 23 9.61328 23 8.10156 22.6133C7.29297 22.4023 6.625 21.7695 6.41406 20.9258C5.99219 19.4141 5.99219 16.2852 5.99219 16.2852C5.99219 16.2852 5.99219 13.1211 6.41406 11.6445C6.625 10.8008 7.29297 10.1328 8.10156 9.92188C9.61328 9.5 15.625 9.5 15.625 9.5C15.625 9.5 21.6016 9.5 23.1133 9.92188C23.9219 10.1328 24.5898 10.8008 24.8008 11.6445ZM13.6562 19.1328L18.6484 16.2852L13.6562 13.4375V19.1328Z" fill="white"/>
</svg>
