<svg width="48" height="48" viewBox="0 0 48 48" fill="none" xmlns="http://www.w3.org/2000/svg">
<rect width="48" height="48" rx="12" fill="#F8F8F8"/>
<path d="M24.5717 21.9843V21.4597H26.1428V28.8352H25.244C25.0664 28.8353 24.8959 28.765 24.7699 28.6397C24.6439 28.5145 24.5726 28.3444 24.5717 28.1668C23.916 28.6468 23.1235 28.9057 22.3109 28.9048C20.1948 28.9048 18.4791 27.1902 18.4791 25.0755C18.4791 22.9609 20.1948 21.2462 22.3109 21.2462C23.1235 21.2453 23.916 21.5042 24.5717 21.9843ZM18.0719 19.0879V19.3271C18.0719 19.7731 18.0124 20.1372 17.7225 20.5643L17.6875 20.6043C17.6243 20.6761 17.4758 20.8447 17.4051 20.936L12.3613 27.2667H18.0719V28.1629C18.0719 28.2512 18.0544 28.3387 18.0206 28.4202C17.9868 28.5018 17.9372 28.5759 17.8747 28.6383C17.8122 28.7007 17.7381 28.7502 17.6565 28.784C17.5749 28.8177 17.4874 28.8351 17.3991 28.835H10V28.4125C10 27.8949 10.1286 27.6642 10.2911 27.4236L15.6679 20.7684H10.2242V19.0879H18.0719ZM28.0485 28.8352C27.9 28.8351 27.7576 28.7761 27.6525 28.6712C27.5474 28.5662 27.4883 28.4239 27.4881 28.2754V19.0879H29.17V28.8352H28.0485ZM34.1423 21.2C36.2733 21.2 38 22.9275 38 25.0552C38 27.1846 36.2732 28.9122 34.1423 28.9122C32.0115 28.9122 30.2846 27.1846 30.2846 25.0552C30.2846 22.9275 32.0115 21.2 34.1423 21.2ZM22.3109 27.3285C23.5563 27.3285 24.5654 26.3199 24.5654 25.0755C24.5654 23.833 23.5562 22.8244 22.3109 22.8244C21.0656 22.8244 20.0564 23.8328 20.0564 25.0755C20.0564 26.3199 21.0656 27.3285 22.3109 27.3285ZM34.1423 27.3247C35.3949 27.3247 36.4115 26.3089 36.4115 25.0552C36.4115 23.8033 35.3949 22.7876 34.1423 22.7876C32.8878 22.7876 31.8731 23.8033 31.8731 25.0552C31.8731 26.3089 32.8878 27.3247 34.1423 27.3247Z" fill="black"/>
</svg>
